{
 "cells": [
  {
   "cell_type": "code",
   "execution_count": 1,
   "id": "f3842f91",
   "metadata": {},
   "outputs": [],
   "source": [
    "from typing import List, Tuple\n",
    "from datetime import timedelta\n",
    "\n",
    "import random\n",
    "from datetime import timedelta\n",
    "\n",
    "import subprocess\n",
    "import os\n",
    "from datetime import timedelta\n",
    "\n",
    "from moviepy import VideoFileClip, concatenate_videoclips\n",
    "import os"
   ]
  },
  {
   "cell_type": "code",
   "execution_count": 2,
   "id": "27b7c181",
   "metadata": {},
   "outputs": [],
   "source": [
    "genre_dict = \\\n",
    "    {\n",
    "        \"drama\": {\n",
    "            \"setup_conflict\": {\n",
    "                \"description\": \"Установление основного конфликта\",\n",
    "                \"start_percent\": 5.0,\n",
    "                \"end_percent\": 15.0\n",
    "            },\n",
    "            \"character_development\": {\n",
    "                \"description\": \"Эмоциональное развитие персонажа\",\n",
    "                \"start_percent\": 20.0,\n",
    "                \"end_percent\": 40.0\n",
    "            },\n",
    "            \"plot_twist\": {\n",
    "                \"description\": \"Поворот сюжета или неожиданное развитие\",\n",
    "                \"start_percent\": 50.0,\n",
    "                \"end_percent\": 60.0\n",
    "            },\n",
    "            \"climax_confrontation\": {\n",
    "                \"description\": \"Главный конфликт между героями\",\n",
    "                \"start_percent\": 60.0,\n",
    "                \"end_percent\": 75.0\n",
    "            },\n",
    "            \"partial_resolution\": {\n",
    "                \"description\": \"Частичное разрешение, но с продолжением\",\n",
    "                \"start_percent\": 80.0,\n",
    "                \"end_percent\": 90.0\n",
    "            },\n",
    "            \"cliffhanger\": {\n",
    "                \"description\": \"Неожиданный поворот или намёк на следующую серию\",\n",
    "                \"start_percent\": 95.0,\n",
    "                \"end_percent\": 100.0\n",
    "            }\n",
    "        },\n",
    "\n",
    "        \"crime\": {\n",
    "            \"crime_discovery\": {\n",
    "                \"description\": \"Обнаружение преступления или загадка\",\n",
    "                \"start_percent\": 0.0,\n",
    "                \"end_percent\": 10.0\n",
    "            },\n",
    "            \"gathering_clues\": {\n",
    "                \"description\": \"Расследование, сбор улик\",\n",
    "                \"start_percent\": 15.0,\n",
    "                \"end_percent\": 35.0\n",
    "            },\n",
    "            \"false_lead\": {\n",
    "                \"description\": \"Ложный след или неправильная версия\",\n",
    "                \"start_percent\": 35.0,\n",
    "                \"end_percent\": 50.0\n",
    "            },\n",
    "            \"truth_revealed\": {\n",
    "                \"description\": \"Открытие истинного преступника или причины\",\n",
    "                \"start_percent\": 60.0,\n",
    "                \"end_percent\": 75.0\n",
    "            },\n",
    "            \"resolution\": {\n",
    "                \"description\": \"Завершение дела или арест\",\n",
    "                \"start_percent\": 80.0,\n",
    "                \"end_percent\": 90.0\n",
    "            },\n",
    "            \"emotional_ending\": {\n",
    "                \"description\": \"Реакция главных героев или намёк на будущее\",\n",
    "                \"start_percent\": 90.0,\n",
    "                \"end_percent\": 100.0\n",
    "            }\n",
    "        },\n",
    "\n",
    "        \"fantasy\": {\n",
    "            \"quest_announced\": {\n",
    "                \"description\": \"Объявление цели или миссии\",\n",
    "                \"start_percent\": 0.0,\n",
    "                \"end_percent\": 10.0\n",
    "            },\n",
    "            \"trials\": {\n",
    "                \"description\": \"Пройденные испытания или битвы\",\n",
    "                \"start_percent\": 10.0,\n",
    "                \"end_percent\": 50.0\n",
    "            },\n",
    "            \"betrayal_or_failure\": {\n",
    "                \"description\": \"Предательство или крупная потеря\",\n",
    "                \"start_percent\": 50.0,\n",
    "                \"end_percent\": 65.0\n",
    "            },\n",
    "            \"power_or_knowledge_gained\": {\n",
    "                \"description\": \"Герои получают силу или знание для победы\",\n",
    "                \"start_percent\": 65.0,\n",
    "                \"end_percent\": 80.0\n",
    "            },\n",
    "            \"final_battle\": {\n",
    "                \"description\": \"Финальная битва с главным злом\",\n",
    "                \"start_percent\": 80.0,\n",
    "                \"end_percent\": 95.0\n",
    "            },\n",
    "            \"new_horizon\": {\n",
    "                \"description\": \"Намёк на новое приключение или путь\",\n",
    "                \"start_percent\": 95.0,\n",
    "                \"end_percent\": 100.0\n",
    "            }\n",
    "        },\n",
    "\n",
    "        \"comedy\": {\n",
    "            \"funny_situation_introduced\": {\n",
    "                \"description\": \"Введение забавной ситуации\",\n",
    "                \"start_percent\": 0.0,\n",
    "                \"end_percent\": 10.0\n",
    "            },\n",
    "            \"absurdity_increases\": {\n",
    "                \"description\": \"Усиление абсурда или ошибок\",\n",
    "                \"start_percent\": 10.0,\n",
    "                \"end_percent\": 30.0\n",
    "            },\n",
    "            \"peak_of_humor\": {\n",
    "                \"description\": \"Максимальный юмор, точка кульминации\",\n",
    "                \"start_percent\": 30.0,\n",
    "                \"end_percent\": 50.0\n",
    "            },\n",
    "            \"attempt_to_fix\": {\n",
    "                \"description\": \"Попытка исправить ситуацию\",\n",
    "                \"start_percent\": 50.0,\n",
    "                \"end_percent\": 70.0\n",
    "            },\n",
    "            \"unexpected_result\": {\n",
    "                \"description\": \"Неожиданный смешной результат\",\n",
    "                \"start_percent\": 70.0,\n",
    "                \"end_percent\": 90.0\n",
    "            },\n",
    "            \"ironic_conclusion\": {\n",
    "                \"description\": \"Шутка на прощание или клиффхенгер\",\n",
    "                \"start_percent\": 90.0,\n",
    "                \"end_percent\": 100.0\n",
    "            }\n",
    "        },\n",
    "\n",
    "        \"sci-fi\": {\n",
    "            \"technology_introduced\": {\n",
    "                \"description\": \"Введение нового явления или технологии\",\n",
    "                \"start_percent\": 0.0,\n",
    "                \"end_percent\": 10.0\n",
    "            },\n",
    "            \"consequences_explored\": {\n",
    "                \"description\": \"Изучение последствий использования\",\n",
    "                \"start_percent\": 10.0,\n",
    "                \"end_percent\": 40.0\n",
    "            },\n",
    "            \"ethical_dilemma\": {\n",
    "                \"description\": \"Моральный выбор или риск\",\n",
    "                \"start_percent\": 40.0,\n",
    "                \"end_percent\": 60.0\n",
    "            },\n",
    "            \"crisis_occurs\": {\n",
    "                \"description\": \"Происходит кризис или угроза\",\n",
    "                \"start_percent\": 60.0,\n",
    "                \"end_percent\": 80.0\n",
    "            },\n",
    "            \"solution_found\": {\n",
    "                \"description\": \"Находится решение или новое понимание\",\n",
    "                \"start_percent\": 80.0,\n",
    "                \"end_percent\": 95.0\n",
    "            },\n",
    "            \"philosophical_note\": {\n",
    "                \"description\": \"Философский вывод или вопрос\",\n",
    "                \"start_percent\": 95.0,\n",
    "                \"end_percent\": 100.0\n",
    "            }\n",
    "        },\n",
    "\n",
    "        \"horror\": {\n",
    "            \"atmosphere_set\": {\n",
    "                \"description\": \"Создание атмосферы страха\",\n",
    "                \"start_percent\": 0.0,\n",
    "                \"end_percent\": 10.0\n",
    "            },\n",
    "            \"first_fear\": {\n",
    "                \"description\": \"Первый страх или сигнал опасности\",\n",
    "                \"start_percent\": 10.0,\n",
    "                \"end_percent\": 25.0\n",
    "            },\n",
    "            \"tension_builds\": {\n",
    "                \"description\": \"Наращивание напряжения\",\n",
    "                \"start_percent\": 25.0,\n",
    "                \"end_percent\": 50.0\n",
    "            },\n",
    "            \"main_horror_moment\": {\n",
    "                \"description\": \"Главный момент ужаса или жертва\",\n",
    "                \"start_percent\": 50.0,\n",
    "                \"end_percent\": 70.0\n",
    "            },\n",
    "            \"escape_or_chase\": {\n",
    "                \"description\": \"Погоня или попытка спастись\",\n",
    "                \"start_percent\": 70.0,\n",
    "                \"end_percent\": 85.0\n",
    "            },\n",
    "            \"unresolved_end\": {\n",
    "                \"description\": \"Неожиданный финал или намёк на продолжение\",\n",
    "                \"start_percent\": 85.0,\n",
    "                \"end_percent\": 100.0\n",
    "            }\n",
    "        },\n",
    "        \"default\": {\n",
    "            \"setup\": {\n",
    "                \"description\": \"Введение основного конфликта или ситуации\",\n",
    "                \"start_percent\": 5.0,\n",
    "                \"end_percent\": 15.0\n",
    "            },\n",
    "            \"development\": {\n",
    "                \"description\": \"Развитие событий, углубление в сюжет\",\n",
    "                \"start_percent\": 20.0,\n",
    "                \"end_percent\": 45.0\n",
    "            },\n",
    "            \"plot_twist\": {\n",
    "                \"description\": \"Неожиданный поворот или осложнение\",\n",
    "                \"start_percent\": 50.0,\n",
    "                \"end_percent\": 65.0\n",
    "            },\n",
    "            \"climax\": {\n",
    "                \"description\": \"Кульминационный момент действия\",\n",
    "                \"start_percent\": 70.0,\n",
    "                \"end_percent\": 85.0\n",
    "            },\n",
    "            \"cliffhanger\": {\n",
    "                \"description\": \"Финальный намёк на следующую серию\",\n",
    "                \"start_percent\": 90.0,\n",
    "                \"end_percent\": 100.0\n",
    "            }\n",
    "        }\n",
    "\n",
    "    }"
   ]
  },
  {
   "cell_type": "code",
   "execution_count": 3,
   "id": "e78f32ba",
   "metadata": {},
   "outputs": [],
   "source": [
    "UNIFIED_KEY_MOMENTS = {\n",
    "    \"setup\": {\n",
    "        \"description\": \"Введение основной ситуации или конфликта\"\n",
    "    },\n",
    "    \"development\": {\n",
    "        \"description\": \"Развитие сюжета, углубление в историю\"\n",
    "    },\n",
    "    \"twist\": {\n",
    "        \"description\": \"Неожиданный поворот или осложнение\"\n",
    "    },\n",
    "    \"climax\": {\n",
    "        \"description\": \"Кульминационный момент\"\n",
    "    },\n",
    "    \"resolution\": {\n",
    "        \"description\": \"Разрешение или намёк на продолжение\"\n",
    "    },\n",
    "    \"cliffhanger\": {\n",
    "        \"description\": \"Финальное событие или клиффхенгер\"\n",
    "    }\n",
    "}"
   ]
  },
  {
   "cell_type": "code",
   "execution_count": 4,
   "id": "eba03ab8",
   "metadata": {},
   "outputs": [],
   "source": [
    "def unify_moments(genre_data):\n",
    "    mapping = {\n",
    "        \"setup\": None,\n",
    "        \"development\": None,\n",
    "        \"twist\": None,\n",
    "        \"climax\": None,\n",
    "        \"resolution\": None,\n",
    "        \"cliffhanger\": None\n",
    "    }\n",
    "\n",
    "    # Попытка найти соответствующее поле в жанре\n",
    "    for key in genre_data:\n",
    "        if \"setup\" in key or \"introduced\" in key or \"discovery\" in key or \"announced\" in key:\n",
    "            mapping[\"setup\"] = key\n",
    "        elif \"develop\" in key or \"trial\" in key or \"consequence\" in key or \"gathering\" in key:\n",
    "            mapping[\"development\"] = key\n",
    "        elif \"twist\" in key or \"false\" in key or \"betrayal\" in key or \"ethical\" in key:\n",
    "            mapping[\"twist\"] = key\n",
    "        elif \"climax\" in key or \"battle\" in key or \"final\" in key or \"truth\" in key:\n",
    "            mapping[\"climax\"] = key\n",
    "        elif \"resolution\" in key or \"ending\" in key or \"solution\" in key or \"conclusion\" in key:\n",
    "            mapping[\"resolution\"] = key\n",
    "        elif \"cliffhanger\" in key or \"new\" in key or \"hint\" in key or \"philosophical\" in key:\n",
    "            mapping[\"cliffhanger\"] = key\n",
    "\n",
    "    return mapping"
   ]
  },
  {
   "cell_type": "code",
   "execution_count": 5,
   "id": "a79d9ac4",
   "metadata": {},
   "outputs": [],
   "source": [
    "# # Получаем маппинг для жанра \"fantasy\"\n",
    "# mapping = unify_moments(genre_dict[\"fantasy\"])\n",
    "\n",
    "# # Теперь можем получать унифицированные временные метки\n",
    "# unified = {}\n",
    "# for uk, genre_key in mapping.items():\n",
    "#     if genre_key:\n",
    "#         unified[uk] = genre_dict[\"fantasy\"][genre_key]\n",
    "#     else:\n",
    "#         unified[uk] = None\n"
   ]
  },
  {
   "cell_type": "code",
   "execution_count": 6,
   "id": "f115c401",
   "metadata": {},
   "outputs": [],
   "source": [
    "# def generate_recap(genre, total_seconds):\n",
    "#     unified_moments = {}\n",
    "\n",
    "#     # Выбираем жанр или default\n",
    "#     genre_data = genre_dict.get(genre.lower(), genre_dict[\"default\"])\n",
    "#     mapping = unify_moments(genre_data)\n",
    "\n",
    "#     for unified_key, genre_key in mapping.items():\n",
    "#         if genre_key:\n",
    "#             event = genre_data[genre_key]\n",
    "#             start_time = round(total_seconds * event[\"start_percent\"] / 100)\n",
    "#             end_time = round(total_seconds * event[\"end_percent\"] / 100)\n",
    "#             unified_moments[unified_key] = {\n",
    "#                 \"description\": event[\"description\"],\n",
    "#                 \"start\": str(timedelta(seconds=start_time)),\n",
    "#                 \"end\": str(timedelta(seconds=end_time))\n",
    "#             }\n",
    "#         else:\n",
    "#             unified_moments[unified_key] = None\n",
    "\n",
    "#     return unified_moments"
   ]
  },
  {
   "cell_type": "code",
   "execution_count": 7,
   "id": "13f39f81",
   "metadata": {},
   "outputs": [],
   "source": [
    "\n",
    "def generate_recap(genre, total_seconds, chunk_duration=15):\n",
    "    def time_to_seconds(time_str):\n",
    "        h, m, s = map(int, time_str.split(':'))\n",
    "        return h * 3600 + m * 60 + s\n",
    "\n",
    "    def seconds_to_time(seconds):\n",
    "        return str(timedelta(seconds=seconds))\n",
    "\n",
    "    unified_moments = {}\n",
    "\n",
    "    # Выбираем жанр или default\n",
    "    genre_data = genre_dict.get(genre.lower(), genre_dict[\"default\"])\n",
    "    mapping = unify_moments(genre_data)\n",
    "\n",
    "    for unified_key, genre_key in mapping.items():\n",
    "        if genre_key:\n",
    "            event = genre_data[genre_key]\n",
    "            start_time = round(total_seconds * event[\"start_percent\"] / 100)\n",
    "            end_time = round(total_seconds * event[\"end_percent\"] / 100)\n",
    "\n",
    "            # Преобразуем время в строку hh:mm:ss\n",
    "            start_time_str = seconds_to_time(start_time)\n",
    "            end_time_str = seconds_to_time(end_time)\n",
    "\n",
    "            # Генерируем случайный chunk_duration-секундный клип внутри этого интервала\n",
    "            clip_start_sec = None\n",
    "            clip_end_sec = None\n",
    "\n",
    "            if end_time - start_time >= chunk_duration:\n",
    "                clip_start_sec = random.randint(start_time, end_time - chunk_duration)\n",
    "                clip_end_sec = clip_start_sec + chunk_duration\n",
    "\n",
    "            unified_moments[unified_key] = {\n",
    "                \"description\": event[\"description\"],\n",
    "                \"start\": start_time_str,\n",
    "                \"end\": end_time_str,\n",
    "                \"clip_start\": seconds_to_time(clip_start_sec) if clip_start_sec is not None else None,\n",
    "                \"clip_end\": seconds_to_time(clip_end_sec) if clip_end_sec is not None else None,\n",
    "            }\n",
    "        else:\n",
    "            unified_moments[unified_key] = None\n",
    "\n",
    "    return unified_moments"
   ]
  },
  {
   "cell_type": "code",
   "execution_count": 8,
   "id": "b8ebe722",
   "metadata": {},
   "outputs": [],
   "source": [
    "total_length = 20*60 - 2*60 # режем титры и интро\n",
    "genre = \"drama\""
   ]
  },
  {
   "cell_type": "code",
   "execution_count": 9,
   "id": "bf4de97d",
   "metadata": {},
   "outputs": [],
   "source": [
    "recap = generate_recap(genre, total_length)"
   ]
  },
  {
   "cell_type": "code",
   "execution_count": 10,
   "id": "c155c8d7",
   "metadata": {},
   "outputs": [
    {
     "data": {
      "text/plain": [
       "{'setup': {'description': 'Установление основного конфликта',\n",
       "  'start': '0:00:54',\n",
       "  'end': '0:02:42',\n",
       "  'clip_start': '0:02:13',\n",
       "  'clip_end': '0:02:28'},\n",
       " 'development': {'description': 'Эмоциональное развитие персонажа',\n",
       "  'start': '0:03:36',\n",
       "  'end': '0:07:12',\n",
       "  'clip_start': '0:04:51',\n",
       "  'clip_end': '0:05:06'},\n",
       " 'twist': {'description': 'Поворот сюжета или неожиданное развитие',\n",
       "  'start': '0:09:00',\n",
       "  'end': '0:10:48',\n",
       "  'clip_start': '0:10:16',\n",
       "  'clip_end': '0:10:31'},\n",
       " 'climax': {'description': 'Главный конфликт между героями',\n",
       "  'start': '0:10:48',\n",
       "  'end': '0:13:30',\n",
       "  'clip_start': '0:13:05',\n",
       "  'clip_end': '0:13:20'},\n",
       " 'resolution': {'description': 'Частичное разрешение, но с продолжением',\n",
       "  'start': '0:14:24',\n",
       "  'end': '0:16:12',\n",
       "  'clip_start': '0:14:40',\n",
       "  'clip_end': '0:14:55'},\n",
       " 'cliffhanger': {'description': 'Неожиданный поворот или намёк на следующую серию',\n",
       "  'start': '0:17:06',\n",
       "  'end': '0:18:00',\n",
       "  'clip_start': '0:17:07',\n",
       "  'clip_end': '0:17:22'}}"
      ]
     },
     "execution_count": 10,
     "metadata": {},
     "output_type": "execute_result"
    }
   ],
   "source": [
    "recap"
   ]
  },
  {
   "cell_type": "code",
   "execution_count": 11,
   "id": "1ca01667",
   "metadata": {},
   "outputs": [],
   "source": [
    "def get_borders(recap_data):\n",
    "    result_list = []\n",
    "    for element in recap_data.keys():\n",
    "        result_list.append(\n",
    "            (recap_data[element][\"clip_start\"], recap_data[element][\"clip_end\"]))\n",
    "        \n",
    "    return result_list"
   ]
  },
  {
   "cell_type": "code",
   "execution_count": 12,
   "id": "8aebb879",
   "metadata": {},
   "outputs": [
    {
     "data": {
      "text/plain": [
       "[('0:02:13', '0:02:28'),\n",
       " ('0:04:51', '0:05:06'),\n",
       " ('0:10:16', '0:10:31'),\n",
       " ('0:13:05', '0:13:20'),\n",
       " ('0:14:40', '0:14:55'),\n",
       " ('0:17:07', '0:17:22')]"
      ]
     },
     "execution_count": 12,
     "metadata": {},
     "output_type": "execute_result"
    }
   ],
   "source": [
    "clips_times = get_borders(recap)\n",
    "clips_times"
   ]
  },
  {
   "cell_type": "code",
   "execution_count": 13,
   "id": "8f2aa999",
   "metadata": {},
   "outputs": [
    {
     "name": "stderr",
     "output_type": "stream",
     "text": [
      "ffmpeg version 7.1.1 Copyright (c) 2000-2025 the FFmpeg developers\n",
      "  built with Apple clang version 16.0.0 (clang-1600.0.26.6)\n",
      "  configuration: --prefix=/opt/homebrew/Cellar/ffmpeg/7.1.1_2 --enable-shared --enable-pthreads --enable-version3 --cc=clang --host-cflags= --host-ldflags='-Wl,-ld_classic' --enable-ffplay --enable-gnutls --enable-gpl --enable-libaom --enable-libaribb24 --enable-libbluray --enable-libdav1d --enable-libharfbuzz --enable-libjxl --enable-libmp3lame --enable-libopus --enable-librav1e --enable-librist --enable-librubberband --enable-libsnappy --enable-libsrt --enable-libssh --enable-libsvtav1 --enable-libtesseract --enable-libtheora --enable-libvidstab --enable-libvmaf --enable-libvorbis --enable-libvpx --enable-libwebp --enable-libx264 --enable-libx265 --enable-libxml2 --enable-libxvid --enable-lzma --enable-libfontconfig --enable-libfreetype --enable-frei0r --enable-libass --enable-libopencore-amrnb --enable-libopencore-amrwb --enable-libopenjpeg --enable-libspeex --enable-libsoxr --enable-libzmq --enable-libzimg --disable-libjack --disable-indev=jack --enable-videotoolbox --enable-audiotoolbox --enable-neon\n",
      "  libavutil      59. 39.100 / 59. 39.100\n",
      "  libavcodec     61. 19.101 / 61. 19.101\n",
      "  libavformat    61.  7.100 / 61.  7.100\n",
      "  libavdevice    61.  3.100 / 61.  3.100\n",
      "  libavfilter    10.  4.100 / 10.  4.100\n",
      "  libswscale      8.  3.100 /  8.  3.100\n",
      "  libswresample   5.  3.100 /  5.  3.100\n",
      "  libpostproc    58.  3.100 / 58.  3.100\n",
      "Input #0, mov,mp4,m4a,3gp,3g2,mj2, from './data/14194_1_1.mp4':\n",
      "  Metadata:\n",
      "    major_brand     : isom\n",
      "    minor_version   : 1\n",
      "    compatible_brands: isom\n",
      "    creation_time   : 2023-09-11T15:31:45.000000Z\n",
      "  Duration: 00:20:05.44, start: 0.000000, bitrate: 684 kb/s\n",
      "  Stream #0:0[0x1](und): Video: h264 (Main) (avc1 / 0x31637661), yuv420p(progressive), 480x174, 552 kb/s, 25 fps, 25 tbr, 12800 tbn (default)\n",
      "      Metadata:\n",
      "        handler_name    : VideoHandler\n",
      "        vendor_id       : [0][0][0][0]\n",
      "  Stream #0:1[0x2](und): Audio: aac (LC) (mp4a / 0x6134706D), 48000 Hz, stereo, fltp, 128 kb/s (default)\n",
      "      Metadata:\n",
      "        handler_name    : SoundHandler\n",
      "        vendor_id       : [0][0][0][0]\n",
      "Stream mapping:\n",
      "  Stream #0:0 -> #0:0 (copy)\n",
      "  Stream #0:1 -> #0:1 (copy)\n",
      "Output #0, mp4, to 'clip_0.mp4':\n",
      "  Metadata:\n",
      "    major_brand     : isom\n",
      "    minor_version   : 1\n",
      "    compatible_brands: isom\n",
      "    encoder         : Lavf61.7.100\n",
      "  Stream #0:0(und): Video: h264 (Main) (avc1 / 0x31637661), yuv420p(progressive), 480x174, q=2-31, 552 kb/s, 25 fps, 25 tbr, 12800 tbn (default)\n",
      "      Metadata:\n",
      "        handler_name    : VideoHandler\n",
      "        vendor_id       : [0][0][0][0]\n",
      "  Stream #0:1(und): Audio: aac (LC) (mp4a / 0x6134706D), 48000 Hz, stereo, fltp, 128 kb/s (default)\n",
      "      Metadata:\n",
      "        handler_name    : SoundHandler\n",
      "        vendor_id       : [0][0][0][0]\n",
      "Press [q] to stop, [?] for help\n",
      "[out#0/mp4 @ 0x157742690] video:1756KiB audio:251KiB subtitle:0KiB other streams:0KiB global headers:0KiB muxing overhead: 0.620092%\n",
      "frame=  401 fps=0.0 q=-1.0 Lsize=    2020KiB time=00:00:15.00 bitrate=1103.0kbits/s speed=3.55e+03x    \n",
      "ffmpeg version 7.1.1 Copyright (c) 2000-2025 the FFmpeg developers\n",
      "  built with Apple clang version 16.0.0 (clang-1600.0.26.6)\n",
      "  configuration: --prefix=/opt/homebrew/Cellar/ffmpeg/7.1.1_2 --enable-shared --enable-pthreads --enable-version3 --cc=clang --host-cflags= --host-ldflags='-Wl,-ld_classic' --enable-ffplay --enable-gnutls --enable-gpl --enable-libaom --enable-libaribb24 --enable-libbluray --enable-libdav1d --enable-libharfbuzz --enable-libjxl --enable-libmp3lame --enable-libopus --enable-librav1e --enable-librist --enable-librubberband --enable-libsnappy --enable-libsrt --enable-libssh --enable-libsvtav1 --enable-libtesseract --enable-libtheora --enable-libvidstab --enable-libvmaf --enable-libvorbis --enable-libvpx --enable-libwebp --enable-libx264 --enable-libx265 --enable-libxml2 --enable-libxvid --enable-lzma --enable-libfontconfig --enable-libfreetype --enable-frei0r --enable-libass --enable-libopencore-amrnb --enable-libopencore-amrwb --enable-libopenjpeg --enable-libspeex --enable-libsoxr --enable-libzmq --enable-libzimg --disable-libjack --disable-indev=jack --enable-videotoolbox --enable-audiotoolbox --enable-neon\n",
      "  libavutil      59. 39.100 / 59. 39.100\n",
      "  libavcodec     61. 19.101 / 61. 19.101\n",
      "  libavformat    61.  7.100 / 61.  7.100\n",
      "  libavdevice    61.  3.100 / 61.  3.100\n",
      "  libavfilter    10.  4.100 / 10.  4.100\n",
      "  libswscale      8.  3.100 /  8.  3.100\n",
      "  libswresample   5.  3.100 /  5.  3.100\n",
      "  libpostproc    58.  3.100 / 58.  3.100\n",
      "Input #0, mov,mp4,m4a,3gp,3g2,mj2, from './data/14194_1_1.mp4':\n",
      "  Metadata:\n",
      "    major_brand     : isom\n",
      "    minor_version   : 1\n",
      "    compatible_brands: isom\n",
      "    creation_time   : 2023-09-11T15:31:45.000000Z\n",
      "  Duration: 00:20:05.44, start: 0.000000, bitrate: 684 kb/s\n",
      "  Stream #0:0[0x1](und): Video: h264 (Main) (avc1 / 0x31637661), yuv420p(progressive), 480x174, 552 kb/s, 25 fps, 25 tbr, 12800 tbn (default)\n",
      "      Metadata:\n",
      "        handler_name    : VideoHandler\n",
      "        vendor_id       : [0][0][0][0]\n",
      "  Stream #0:1[0x2](und): Audio: aac (LC) (mp4a / 0x6134706D), 48000 Hz, stereo, fltp, 128 kb/s (default)\n",
      "      Metadata:\n",
      "        handler_name    : SoundHandler\n",
      "        vendor_id       : [0][0][0][0]\n",
      "Stream mapping:\n",
      "  Stream #0:0 -> #0:0 (copy)\n",
      "  Stream #0:1 -> #0:1 (copy)\n",
      "Output #0, mp4, to 'clip_1.mp4':\n",
      "  Metadata:\n",
      "    major_brand     : isom\n",
      "    minor_version   : 1\n",
      "    compatible_brands: isom\n",
      "    encoder         : Lavf61.7.100\n",
      "  Stream #0:0(und): Video: h264 (Main) (avc1 / 0x31637661), yuv420p(progressive), 480x174, q=2-31, 552 kb/s, 25 fps, 25 tbr, 12800 tbn (default)\n",
      "      Metadata:\n",
      "        handler_name    : VideoHandler\n",
      "        vendor_id       : [0][0][0][0]\n",
      "  Stream #0:1(und): Audio: aac (LC) (mp4a / 0x6134706D), 48000 Hz, stereo, fltp, 128 kb/s (default)\n",
      "      Metadata:\n",
      "        handler_name    : SoundHandler\n",
      "        vendor_id       : [0][0][0][0]\n",
      "Press [q] to stop, [?] for help\n",
      "[out#0/mp4 @ 0x141604090] video:1352KiB audio:251KiB subtitle:0KiB other streams:0KiB global headers:0KiB muxing overhead: 0.737200%\n",
      "frame=  401 fps=0.0 q=-1.0 Lsize=    1614KiB time=00:00:15.00 bitrate= 881.6kbits/s speed=3.45e+03x    \n",
      "ffmpeg version 7.1.1 Copyright (c) 2000-2025 the FFmpeg developers\n",
      "  built with Apple clang version 16.0.0 (clang-1600.0.26.6)\n",
      "  configuration: --prefix=/opt/homebrew/Cellar/ffmpeg/7.1.1_2 --enable-shared --enable-pthreads --enable-version3 --cc=clang --host-cflags= --host-ldflags='-Wl,-ld_classic' --enable-ffplay --enable-gnutls --enable-gpl --enable-libaom --enable-libaribb24 --enable-libbluray --enable-libdav1d --enable-libharfbuzz --enable-libjxl --enable-libmp3lame --enable-libopus --enable-librav1e --enable-librist --enable-librubberband --enable-libsnappy --enable-libsrt --enable-libssh --enable-libsvtav1 --enable-libtesseract --enable-libtheora --enable-libvidstab --enable-libvmaf --enable-libvorbis --enable-libvpx --enable-libwebp --enable-libx264 --enable-libx265 --enable-libxml2 --enable-libxvid --enable-lzma --enable-libfontconfig --enable-libfreetype --enable-frei0r --enable-libass --enable-libopencore-amrnb --enable-libopencore-amrwb --enable-libopenjpeg --enable-libspeex --enable-libsoxr --enable-libzmq --enable-libzimg --disable-libjack --disable-indev=jack --enable-videotoolbox --enable-audiotoolbox --enable-neon\n",
      "  libavutil      59. 39.100 / 59. 39.100\n",
      "  libavcodec     61. 19.101 / 61. 19.101\n",
      "  libavformat    61.  7.100 / 61.  7.100\n",
      "  libavdevice    61.  3.100 / 61.  3.100\n",
      "  libavfilter    10.  4.100 / 10.  4.100\n",
      "  libswscale      8.  3.100 /  8.  3.100\n",
      "  libswresample   5.  3.100 /  5.  3.100\n",
      "  libpostproc    58.  3.100 / 58.  3.100\n",
      "Input #0, mov,mp4,m4a,3gp,3g2,mj2, from './data/14194_1_1.mp4':\n",
      "  Metadata:\n",
      "    major_brand     : isom\n",
      "    minor_version   : 1\n",
      "    compatible_brands: isom\n",
      "    creation_time   : 2023-09-11T15:31:45.000000Z\n",
      "  Duration: 00:20:05.44, start: 0.000000, bitrate: 684 kb/s\n",
      "  Stream #0:0[0x1](und): Video: h264 (Main) (avc1 / 0x31637661), yuv420p(progressive), 480x174, 552 kb/s, 25 fps, 25 tbr, 12800 tbn (default)\n",
      "      Metadata:\n",
      "        handler_name    : VideoHandler\n",
      "        vendor_id       : [0][0][0][0]\n",
      "  Stream #0:1[0x2](und): Audio: aac (LC) (mp4a / 0x6134706D), 48000 Hz, stereo, fltp, 128 kb/s (default)\n",
      "      Metadata:\n",
      "        handler_name    : SoundHandler\n",
      "        vendor_id       : [0][0][0][0]\n",
      "Stream mapping:\n",
      "  Stream #0:0 -> #0:0 (copy)\n",
      "  Stream #0:1 -> #0:1 (copy)\n",
      "Output #0, mp4, to 'clip_2.mp4':\n",
      "  Metadata:\n",
      "    major_brand     : isom\n",
      "    minor_version   : 1\n",
      "    compatible_brands: isom\n",
      "    encoder         : Lavf61.7.100\n",
      "  Stream #0:0(und): Video: h264 (Main) (avc1 / 0x31637661), yuv420p(progressive), 480x174, q=2-31, 552 kb/s, 25 fps, 25 tbr, 12800 tbn (default)\n",
      "      Metadata:\n",
      "        handler_name    : VideoHandler\n",
      "        vendor_id       : [0][0][0][0]\n",
      "  Stream #0:1(und): Audio: aac (LC) (mp4a / 0x6134706D), 48000 Hz, stereo, fltp, 128 kb/s (default)\n",
      "      Metadata:\n",
      "        handler_name    : SoundHandler\n",
      "        vendor_id       : [0][0][0][0]\n",
      "Press [q] to stop, [?] for help\n",
      "[out#0/mp4 @ 0x12a7146d0] video:568KiB audio:235KiB subtitle:0KiB other streams:0KiB global headers:0KiB muxing overhead: 1.397550%\n",
      "frame=  376 fps=0.0 q=-1.0 Lsize=     815KiB time=00:00:15.00 bitrate= 445.0kbits/s speed=4.56e+03x    \n",
      "ffmpeg version 7.1.1 Copyright (c) 2000-2025 the FFmpeg developers\n",
      "  built with Apple clang version 16.0.0 (clang-1600.0.26.6)\n",
      "  configuration: --prefix=/opt/homebrew/Cellar/ffmpeg/7.1.1_2 --enable-shared --enable-pthreads --enable-version3 --cc=clang --host-cflags= --host-ldflags='-Wl,-ld_classic' --enable-ffplay --enable-gnutls --enable-gpl --enable-libaom --enable-libaribb24 --enable-libbluray --enable-libdav1d --enable-libharfbuzz --enable-libjxl --enable-libmp3lame --enable-libopus --enable-librav1e --enable-librist --enable-librubberband --enable-libsnappy --enable-libsrt --enable-libssh --enable-libsvtav1 --enable-libtesseract --enable-libtheora --enable-libvidstab --enable-libvmaf --enable-libvorbis --enable-libvpx --enable-libwebp --enable-libx264 --enable-libx265 --enable-libxml2 --enable-libxvid --enable-lzma --enable-libfontconfig --enable-libfreetype --enable-frei0r --enable-libass --enable-libopencore-amrnb --enable-libopencore-amrwb --enable-libopenjpeg --enable-libspeex --enable-libsoxr --enable-libzmq --enable-libzimg --disable-libjack --disable-indev=jack --enable-videotoolbox --enable-audiotoolbox --enable-neon\n",
      "  libavutil      59. 39.100 / 59. 39.100\n",
      "  libavcodec     61. 19.101 / 61. 19.101\n",
      "  libavformat    61.  7.100 / 61.  7.100\n",
      "  libavdevice    61.  3.100 / 61.  3.100\n",
      "  libavfilter    10.  4.100 / 10.  4.100\n",
      "  libswscale      8.  3.100 /  8.  3.100\n",
      "  libswresample   5.  3.100 /  5.  3.100\n",
      "  libpostproc    58.  3.100 / 58.  3.100\n",
      "Input #0, mov,mp4,m4a,3gp,3g2,mj2, from './data/14194_1_1.mp4':\n",
      "  Metadata:\n",
      "    major_brand     : isom\n",
      "    minor_version   : 1\n",
      "    compatible_brands: isom\n",
      "    creation_time   : 2023-09-11T15:31:45.000000Z\n",
      "  Duration: 00:20:05.44, start: 0.000000, bitrate: 684 kb/s\n",
      "  Stream #0:0[0x1](und): Video: h264 (Main) (avc1 / 0x31637661), yuv420p(progressive), 480x174, 552 kb/s, 25 fps, 25 tbr, 12800 tbn (default)\n",
      "      Metadata:\n",
      "        handler_name    : VideoHandler\n",
      "        vendor_id       : [0][0][0][0]\n",
      "  Stream #0:1[0x2](und): Audio: aac (LC) (mp4a / 0x6134706D), 48000 Hz, stereo, fltp, 128 kb/s (default)\n",
      "      Metadata:\n",
      "        handler_name    : SoundHandler\n",
      "        vendor_id       : [0][0][0][0]\n",
      "Stream mapping:\n",
      "  Stream #0:0 -> #0:0 (copy)\n",
      "  Stream #0:1 -> #0:1 (copy)\n",
      "Output #0, mp4, to 'clip_3.mp4':\n",
      "  Metadata:\n",
      "    major_brand     : isom\n",
      "    minor_version   : 1\n",
      "    compatible_brands: isom\n",
      "    encoder         : Lavf61.7.100\n",
      "  Stream #0:0(und): Video: h264 (Main) (avc1 / 0x31637661), yuv420p(progressive), 480x174, q=2-31, 552 kb/s, 25 fps, 25 tbr, 12800 tbn (default)\n",
      "      Metadata:\n",
      "        handler_name    : VideoHandler\n",
      "        vendor_id       : [0][0][0][0]\n",
      "  Stream #0:1(und): Audio: aac (LC) (mp4a / 0x6134706D), 48000 Hz, stereo, fltp, 128 kb/s (default)\n",
      "      Metadata:\n",
      "        handler_name    : SoundHandler\n",
      "        vendor_id       : [0][0][0][0]\n",
      "Press [q] to stop, [?] for help\n",
      "[out#0/mp4 @ 0x133604270] video:863KiB audio:250KiB subtitle:0KiB other streams:0KiB global headers:0KiB muxing overhead: 1.139057%\n",
      "frame=  401 fps=0.0 q=-1.0 Lsize=    1126KiB time=00:00:15.00 bitrate= 614.9kbits/s speed=3.69e+03x    \n"
     ]
    },
    {
     "name": "stdout",
     "output_type": "stream",
     "text": [
      "Видео успешно сохранено: ./data/final_recap.mp4\n"
     ]
    },
    {
     "name": "stderr",
     "output_type": "stream",
     "text": [
      "ffmpeg version 7.1.1 Copyright (c) 2000-2025 the FFmpeg developers\n",
      "  built with Apple clang version 16.0.0 (clang-1600.0.26.6)\n",
      "  configuration: --prefix=/opt/homebrew/Cellar/ffmpeg/7.1.1_2 --enable-shared --enable-pthreads --enable-version3 --cc=clang --host-cflags= --host-ldflags='-Wl,-ld_classic' --enable-ffplay --enable-gnutls --enable-gpl --enable-libaom --enable-libaribb24 --enable-libbluray --enable-libdav1d --enable-libharfbuzz --enable-libjxl --enable-libmp3lame --enable-libopus --enable-librav1e --enable-librist --enable-librubberband --enable-libsnappy --enable-libsrt --enable-libssh --enable-libsvtav1 --enable-libtesseract --enable-libtheora --enable-libvidstab --enable-libvmaf --enable-libvorbis --enable-libvpx --enable-libwebp --enable-libx264 --enable-libx265 --enable-libxml2 --enable-libxvid --enable-lzma --enable-libfontconfig --enable-libfreetype --enable-frei0r --enable-libass --enable-libopencore-amrnb --enable-libopencore-amrwb --enable-libopenjpeg --enable-libspeex --enable-libsoxr --enable-libzmq --enable-libzimg --disable-libjack --disable-indev=jack --enable-videotoolbox --enable-audiotoolbox --enable-neon\n",
      "  libavutil      59. 39.100 / 59. 39.100\n",
      "  libavcodec     61. 19.101 / 61. 19.101\n",
      "  libavformat    61.  7.100 / 61.  7.100\n",
      "  libavdevice    61.  3.100 / 61.  3.100\n",
      "  libavfilter    10.  4.100 / 10.  4.100\n",
      "  libswscale      8.  3.100 /  8.  3.100\n",
      "  libswresample   5.  3.100 /  5.  3.100\n",
      "  libpostproc    58.  3.100 / 58.  3.100\n",
      "Input #0, mov,mp4,m4a,3gp,3g2,mj2, from './data/14194_1_1.mp4':\n",
      "  Metadata:\n",
      "    major_brand     : isom\n",
      "    minor_version   : 1\n",
      "    compatible_brands: isom\n",
      "    creation_time   : 2023-09-11T15:31:45.000000Z\n",
      "  Duration: 00:20:05.44, start: 0.000000, bitrate: 684 kb/s\n",
      "  Stream #0:0[0x1](und): Video: h264 (Main) (avc1 / 0x31637661), yuv420p(progressive), 480x174, 552 kb/s, 25 fps, 25 tbr, 12800 tbn (default)\n",
      "      Metadata:\n",
      "        handler_name    : VideoHandler\n",
      "        vendor_id       : [0][0][0][0]\n",
      "  Stream #0:1[0x2](und): Audio: aac (LC) (mp4a / 0x6134706D), 48000 Hz, stereo, fltp, 128 kb/s (default)\n",
      "      Metadata:\n",
      "        handler_name    : SoundHandler\n",
      "        vendor_id       : [0][0][0][0]\n",
      "Stream mapping:\n",
      "  Stream #0:0 -> #0:0 (copy)\n",
      "  Stream #0:1 -> #0:1 (copy)\n",
      "Output #0, mp4, to 'clip_4.mp4':\n",
      "  Metadata:\n",
      "    major_brand     : isom\n",
      "    minor_version   : 1\n",
      "    compatible_brands: isom\n",
      "    encoder         : Lavf61.7.100\n",
      "  Stream #0:0(und): Video: h264 (Main) (avc1 / 0x31637661), yuv420p(progressive), 480x174, q=2-31, 552 kb/s, 25 fps, 25 tbr, 12800 tbn (default)\n",
      "      Metadata:\n",
      "        handler_name    : VideoHandler\n",
      "        vendor_id       : [0][0][0][0]\n",
      "  Stream #0:1(und): Audio: aac (LC) (mp4a / 0x6134706D), 48000 Hz, stereo, fltp, 128 kb/s (default)\n",
      "      Metadata:\n",
      "        handler_name    : SoundHandler\n",
      "        vendor_id       : [0][0][0][0]\n",
      "Press [q] to stop, [?] for help\n",
      "[out#0/mp4 @ 0x12473ac00] video:1111KiB audio:235KiB subtitle:0KiB other streams:0KiB global headers:0KiB muxing overhead: 0.825919%\n",
      "frame=  376 fps=0.0 q=-1.0 Lsize=    1358KiB time=00:00:15.00 bitrate= 741.5kbits/s speed=3.19e+03x    \n",
      "ffmpeg version 7.1.1 Copyright (c) 2000-2025 the FFmpeg developers\n",
      "  built with Apple clang version 16.0.0 (clang-1600.0.26.6)\n",
      "  configuration: --prefix=/opt/homebrew/Cellar/ffmpeg/7.1.1_2 --enable-shared --enable-pthreads --enable-version3 --cc=clang --host-cflags= --host-ldflags='-Wl,-ld_classic' --enable-ffplay --enable-gnutls --enable-gpl --enable-libaom --enable-libaribb24 --enable-libbluray --enable-libdav1d --enable-libharfbuzz --enable-libjxl --enable-libmp3lame --enable-libopus --enable-librav1e --enable-librist --enable-librubberband --enable-libsnappy --enable-libsrt --enable-libssh --enable-libsvtav1 --enable-libtesseract --enable-libtheora --enable-libvidstab --enable-libvmaf --enable-libvorbis --enable-libvpx --enable-libwebp --enable-libx264 --enable-libx265 --enable-libxml2 --enable-libxvid --enable-lzma --enable-libfontconfig --enable-libfreetype --enable-frei0r --enable-libass --enable-libopencore-amrnb --enable-libopencore-amrwb --enable-libopenjpeg --enable-libspeex --enable-libsoxr --enable-libzmq --enable-libzimg --disable-libjack --disable-indev=jack --enable-videotoolbox --enable-audiotoolbox --enable-neon\n",
      "  libavutil      59. 39.100 / 59. 39.100\n",
      "  libavcodec     61. 19.101 / 61. 19.101\n",
      "  libavformat    61.  7.100 / 61.  7.100\n",
      "  libavdevice    61.  3.100 / 61.  3.100\n",
      "  libavfilter    10.  4.100 / 10.  4.100\n",
      "  libswscale      8.  3.100 /  8.  3.100\n",
      "  libswresample   5.  3.100 /  5.  3.100\n",
      "  libpostproc    58.  3.100 / 58.  3.100\n",
      "Input #0, mov,mp4,m4a,3gp,3g2,mj2, from './data/14194_1_1.mp4':\n",
      "  Metadata:\n",
      "    major_brand     : isom\n",
      "    minor_version   : 1\n",
      "    compatible_brands: isom\n",
      "    creation_time   : 2023-09-11T15:31:45.000000Z\n",
      "  Duration: 00:20:05.44, start: 0.000000, bitrate: 684 kb/s\n",
      "  Stream #0:0[0x1](und): Video: h264 (Main) (avc1 / 0x31637661), yuv420p(progressive), 480x174, 552 kb/s, 25 fps, 25 tbr, 12800 tbn (default)\n",
      "      Metadata:\n",
      "        handler_name    : VideoHandler\n",
      "        vendor_id       : [0][0][0][0]\n",
      "  Stream #0:1[0x2](und): Audio: aac (LC) (mp4a / 0x6134706D), 48000 Hz, stereo, fltp, 128 kb/s (default)\n",
      "      Metadata:\n",
      "        handler_name    : SoundHandler\n",
      "        vendor_id       : [0][0][0][0]\n",
      "Stream mapping:\n",
      "  Stream #0:0 -> #0:0 (copy)\n",
      "  Stream #0:1 -> #0:1 (copy)\n",
      "Output #0, mp4, to 'clip_5.mp4':\n",
      "  Metadata:\n",
      "    major_brand     : isom\n",
      "    minor_version   : 1\n",
      "    compatible_brands: isom\n",
      "    encoder         : Lavf61.7.100\n",
      "  Stream #0:0(und): Video: h264 (Main) (avc1 / 0x31637661), yuv420p(progressive), 480x174, q=2-31, 552 kb/s, 25 fps, 25 tbr, 12800 tbn (default)\n",
      "      Metadata:\n",
      "        handler_name    : VideoHandler\n",
      "        vendor_id       : [0][0][0][0]\n",
      "  Stream #0:1(und): Audio: aac (LC) (mp4a / 0x6134706D), 48000 Hz, stereo, fltp, 128 kb/s (default)\n",
      "      Metadata:\n",
      "        handler_name    : SoundHandler\n",
      "        vendor_id       : [0][0][0][0]\n",
      "Press [q] to stop, [?] for help\n",
      "[out#0/mp4 @ 0x146805f20] video:1726KiB audio:251KiB subtitle:0KiB other streams:0KiB global headers:0KiB muxing overhead: 0.617221%\n",
      "frame=  401 fps=0.0 q=-1.0 Lsize=    1989KiB time=00:00:15.00 bitrate=1086.5kbits/s speed=2.45e+03x    \n",
      "ffmpeg version 7.1.1 Copyright (c) 2000-2025 the FFmpeg developers\n",
      "  built with Apple clang version 16.0.0 (clang-1600.0.26.6)\n",
      "  configuration: --prefix=/opt/homebrew/Cellar/ffmpeg/7.1.1_2 --enable-shared --enable-pthreads --enable-version3 --cc=clang --host-cflags= --host-ldflags='-Wl,-ld_classic' --enable-ffplay --enable-gnutls --enable-gpl --enable-libaom --enable-libaribb24 --enable-libbluray --enable-libdav1d --enable-libharfbuzz --enable-libjxl --enable-libmp3lame --enable-libopus --enable-librav1e --enable-librist --enable-librubberband --enable-libsnappy --enable-libsrt --enable-libssh --enable-libsvtav1 --enable-libtesseract --enable-libtheora --enable-libvidstab --enable-libvmaf --enable-libvorbis --enable-libvpx --enable-libwebp --enable-libx264 --enable-libx265 --enable-libxml2 --enable-libxvid --enable-lzma --enable-libfontconfig --enable-libfreetype --enable-frei0r --enable-libass --enable-libopencore-amrnb --enable-libopencore-amrwb --enable-libopenjpeg --enable-libspeex --enable-libsoxr --enable-libzmq --enable-libzimg --disable-libjack --disable-indev=jack --enable-videotoolbox --enable-audiotoolbox --enable-neon\n",
      "  libavutil      59. 39.100 / 59. 39.100\n",
      "  libavcodec     61. 19.101 / 61. 19.101\n",
      "  libavformat    61.  7.100 / 61.  7.100\n",
      "  libavdevice    61.  3.100 / 61.  3.100\n",
      "  libavfilter    10.  4.100 / 10.  4.100\n",
      "  libswscale      8.  3.100 /  8.  3.100\n",
      "  libswresample   5.  3.100 /  5.  3.100\n",
      "  libpostproc    58.  3.100 / 58.  3.100\n",
      "[mov,mp4,m4a,3gp,3g2,mj2 @ 0x124706ed0] Auto-inserting h264_mp4toannexb bitstream filter\n",
      "Input #0, concat, from 'clips_list.txt':\n",
      "  Duration: N/A, start: -1.010667, bitrate: 1024 kb/s\n",
      "  Stream #0:0(und): Video: h264 (Main) (avc1 / 0x31637661), yuv420p(progressive), 480x174, 896 kb/s, 25 fps, 25 tbr, 12800 tbn\n",
      "      Metadata:\n",
      "        handler_name    : VideoHandler\n",
      "        vendor_id       : [0][0][0][0]\n",
      "  Stream #0:1(und): Audio: aac (LC) (mp4a / 0x6134706D), 48000 Hz, stereo, fltp, 127 kb/s\n",
      "      Metadata:\n",
      "        handler_name    : SoundHandler\n",
      "        vendor_id       : [0][0][0][0]\n",
      "Stream mapping:\n",
      "  Stream #0:0 -> #0:0 (copy)\n",
      "  Stream #0:1 -> #0:1 (copy)\n",
      "Output #0, mp4, to './data/final_recap.mp4':\n",
      "  Metadata:\n",
      "    encoder         : Lavf61.7.100\n",
      "  Stream #0:0(und): Video: h264 (Main) (avc1 / 0x31637661), yuv420p(progressive), 480x174, q=2-31, 896 kb/s, 25 fps, 25 tbr, 12800 tbn\n",
      "      Metadata:\n",
      "        handler_name    : VideoHandler\n",
      "        vendor_id       : [0][0][0][0]\n",
      "  Stream #0:1(und): Audio: aac (LC) (mp4a / 0x6134706D), 48000 Hz, stereo, fltp, 127 kb/s\n",
      "      Metadata:\n",
      "        handler_name    : SoundHandler\n",
      "        vendor_id       : [0][0][0][0]\n",
      "Press [q] to stop, [?] for help\n",
      "[mov,mp4,m4a,3gp,3g2,mj2 @ 0x124706e20] Auto-inserting h264_mp4toannexb bitstream filter\n",
      "[vost#0:0/copy @ 0x114613c50] Non-monotonic DTS; previous: 204425, current: 192137; changing to 204426. This may result in incorrect timestamps in the output file.\n",
      "[aost#0:1/copy @ 0x1146148a0] Non-monotonic DTS; previous: 768000, current: 721664; changing to 768001. This may result in incorrect timestamps in the output file.\n",
      "[vost#0:0/copy @ 0x114613c50] Non-monotonic DTS; previous: 204426, current: 192649; changing to 204427. This may result in incorrect timestamps in the output file.\n",
      "[aost#0:1/copy @ 0x1146148a0] Non-monotonic DTS; previous: 768001, current: 722688; changing to 768002. This may result in incorrect timestamps in the output file.\n",
      "[aost#0:1/copy @ 0x1146148a0] Non-monotonic DTS; previous: 768002, current: 723712; changing to 768003. This may result in incorrect timestamps in the output file.\n",
      "[vost#0:0/copy @ 0x114613c50] Non-monotonic DTS; previous: 204427, current: 193161; changing to 204428. This may result in incorrect timestamps in the output file.\n",
      "[aost#0:1/copy @ 0x1146148a0] Non-monotonic DTS; previous: 768003, current: 724736; changing to 768004. This may result in incorrect timestamps in the output file.\n",
      "[aost#0:1/copy @ 0x1146148a0] Non-monotonic DTS; previous: 768004, current: 725760; changing to 768005. This may result in incorrect timestamps in the output file.\n",
      "[vost#0:0/copy @ 0x114613c50] Non-monotonic DTS; previous: 204428, current: 193673; changing to 204429. This may result in incorrect timestamps in the output file.\n",
      "[aost#0:1/copy @ 0x1146148a0] Non-monotonic DTS; previous: 768005, current: 726784; changing to 768006. This may result in incorrect timestamps in the output file.\n",
      "[aost#0:1/copy @ 0x1146148a0] Non-monotonic DTS; previous: 768006, current: 727808; changing to 768007. This may result in incorrect timestamps in the output file.\n",
      "[vost#0:0/copy @ 0x114613c50] Non-monotonic DTS; previous: 204429, current: 194185; changing to 204430. This may result in incorrect timestamps in the output file.\n",
      "[aost#0:1/copy @ 0x1146148a0] Non-monotonic DTS; previous: 768007, current: 728832; changing to 768008. This may result in incorrect timestamps in the output file.\n",
      "[aost#0:1/copy @ 0x1146148a0] Non-monotonic DTS; previous: 768008, current: 729856; changing to 768009. This may result in incorrect timestamps in the output file.\n",
      "[vost#0:0/copy @ 0x114613c50] Non-monotonic DTS; previous: 204430, current: 194697; changing to 204431. This may result in incorrect timestamps in the output file.\n",
      "[aost#0:1/copy @ 0x1146148a0] Non-monotonic DTS; previous: 768009, current: 730880; changing to 768010. This may result in incorrect timestamps in the output file.\n",
      "[aost#0:1/copy @ 0x1146148a0] Non-monotonic DTS; previous: 768010, current: 731904; changing to 768011. This may result in incorrect timestamps in the output file.\n",
      "[vost#0:0/copy @ 0x114613c50] Non-monotonic DTS; previous: 204431, current: 195209; changing to 204432. This may result in incorrect timestamps in the output file.\n",
      "[aost#0:1/copy @ 0x1146148a0] Non-monotonic DTS; previous: 768011, current: 732928; changing to 768012. This may result in incorrect timestamps in the output file.\n",
      "[vost#0:0/copy @ 0x114613c50] Non-monotonic DTS; previous: 204432, current: 195721; changing to 204433. This may result in incorrect timestamps in the output file.\n",
      "[aost#0:1/copy @ 0x1146148a0] Non-monotonic DTS; previous: 768012, current: 733952; changing to 768013. This may result in incorrect timestamps in the output file.\n",
      "[aost#0:1/copy @ 0x1146148a0] Non-monotonic DTS; previous: 768013, current: 734976; changing to 768014. This may result in incorrect timestamps in the output file.\n",
      "[vost#0:0/copy @ 0x114613c50] Non-monotonic DTS; previous: 204433, current: 196233; changing to 204434. This may result in incorrect timestamps in the output file.\n",
      "[aost#0:1/copy @ 0x1146148a0] Non-monotonic DTS; previous: 768014, current: 736000; changing to 768015. This may result in incorrect timestamps in the output file.\n",
      "[aost#0:1/copy @ 0x1146148a0] Non-monotonic DTS; previous: 768015, current: 737024; changing to 768016. This may result in incorrect timestamps in the output file.\n",
      "[vost#0:0/copy @ 0x114613c50] Non-monotonic DTS; previous: 204434, current: 196745; changing to 204435. This may result in incorrect timestamps in the output file.\n",
      "[aost#0:1/copy @ 0x1146148a0] Non-monotonic DTS; previous: 768016, current: 738048; changing to 768017. This may result in incorrect timestamps in the output file.\n",
      "[aost#0:1/copy @ 0x1146148a0] Non-monotonic DTS; previous: 768017, current: 739072; changing to 768018. This may result in incorrect timestamps in the output file.\n",
      "[vost#0:0/copy @ 0x114613c50] Non-monotonic DTS; previous: 204435, current: 197257; changing to 204436. This may result in incorrect timestamps in the output file.\n",
      "[aost#0:1/copy @ 0x1146148a0] Non-monotonic DTS; previous: 768018, current: 740096; changing to 768019. This may result in incorrect timestamps in the output file.\n",
      "[aost#0:1/copy @ 0x1146148a0] Non-monotonic DTS; previous: 768019, current: 741120; changing to 768020. This may result in incorrect timestamps in the output file.\n",
      "[vost#0:0/copy @ 0x114613c50] Non-monotonic DTS; previous: 204436, current: 197769; changing to 204437. This may result in incorrect timestamps in the output file.\n",
      "[aost#0:1/copy @ 0x1146148a0] Non-monotonic DTS; previous: 768020, current: 742144; changing to 768021. This may result in incorrect timestamps in the output file.\n",
      "[aost#0:1/copy @ 0x1146148a0] Non-monotonic DTS; previous: 768021, current: 743168; changing to 768022. This may result in incorrect timestamps in the output file.\n",
      "[vost#0:0/copy @ 0x114613c50] Non-monotonic DTS; previous: 204437, current: 198281; changing to 204438. This may result in incorrect timestamps in the output file.\n",
      "[aost#0:1/copy @ 0x1146148a0] Non-monotonic DTS; previous: 768022, current: 744192; changing to 768023. This may result in incorrect timestamps in the output file.\n",
      "[aost#0:1/copy @ 0x1146148a0] Non-monotonic DTS; previous: 768023, current: 745216; changing to 768024. This may result in incorrect timestamps in the output file.\n",
      "[vost#0:0/copy @ 0x114613c50] Non-monotonic DTS; previous: 204438, current: 198793; changing to 204439. This may result in incorrect timestamps in the output file.\n",
      "[aost#0:1/copy @ 0x1146148a0] Non-monotonic DTS; previous: 768024, current: 746240; changing to 768025. This may result in incorrect timestamps in the output file.\n",
      "[aost#0:1/copy @ 0x1146148a0] Non-monotonic DTS; previous: 768025, current: 747264; changing to 768026. This may result in incorrect timestamps in the output file.\n",
      "[vost#0:0/copy @ 0x114613c50] Non-monotonic DTS; previous: 204439, current: 199305; changing to 204440. This may result in incorrect timestamps in the output file.\n",
      "[aost#0:1/copy @ 0x1146148a0] Non-monotonic DTS; previous: 768026, current: 748288; changing to 768027. This may result in incorrect timestamps in the output file.\n",
      "[vost#0:0/copy @ 0x114613c50] Non-monotonic DTS; previous: 204440, current: 199817; changing to 204441. This may result in incorrect timestamps in the output file.\n",
      "[aost#0:1/copy @ 0x1146148a0] Non-monotonic DTS; previous: 768027, current: 749312; changing to 768028. This may result in incorrect timestamps in the output file.\n",
      "[aost#0:1/copy @ 0x1146148a0] Non-monotonic DTS; previous: 768028, current: 750336; changing to 768029. This may result in incorrect timestamps in the output file.\n",
      "[vost#0:0/copy @ 0x114613c50] Non-monotonic DTS; previous: 204441, current: 200329; changing to 204442. This may result in incorrect timestamps in the output file.\n",
      "[aost#0:1/copy @ 0x1146148a0] Non-monotonic DTS; previous: 768029, current: 751360; changing to 768030. This may result in incorrect timestamps in the output file.\n",
      "[aost#0:1/copy @ 0x1146148a0] Non-monotonic DTS; previous: 768030, current: 752384; changing to 768031. This may result in incorrect timestamps in the output file.\n",
      "[vost#0:0/copy @ 0x114613c50] Non-monotonic DTS; previous: 204442, current: 200841; changing to 204443. This may result in incorrect timestamps in the output file.\n",
      "[aost#0:1/copy @ 0x1146148a0] Non-monotonic DTS; previous: 768031, current: 753408; changing to 768032. This may result in incorrect timestamps in the output file.\n",
      "[aost#0:1/copy @ 0x1146148a0] Non-monotonic DTS; previous: 768032, current: 754432; changing to 768033. This may result in incorrect timestamps in the output file.\n",
      "[vost#0:0/copy @ 0x114613c50] Non-monotonic DTS; previous: 204443, current: 201353; changing to 204444. This may result in incorrect timestamps in the output file.\n",
      "[aost#0:1/copy @ 0x1146148a0] Non-monotonic DTS; previous: 768033, current: 755456; changing to 768034. This may result in incorrect timestamps in the output file.\n",
      "[aost#0:1/copy @ 0x1146148a0] Non-monotonic DTS; previous: 768034, current: 756480; changing to 768035. This may result in incorrect timestamps in the output file.\n",
      "[vost#0:0/copy @ 0x114613c50] Non-monotonic DTS; previous: 204444, current: 201865; changing to 204445. This may result in incorrect timestamps in the output file.\n",
      "[aost#0:1/copy @ 0x1146148a0] Non-monotonic DTS; previous: 768035, current: 757504; changing to 768036. This may result in incorrect timestamps in the output file.\n",
      "[aost#0:1/copy @ 0x1146148a0] Non-monotonic DTS; previous: 768036, current: 758528; changing to 768037. This may result in incorrect timestamps in the output file.\n",
      "[vost#0:0/copy @ 0x114613c50] Non-monotonic DTS; previous: 204445, current: 202377; changing to 204446. This may result in incorrect timestamps in the output file.\n",
      "[aost#0:1/copy @ 0x1146148a0] Non-monotonic DTS; previous: 768037, current: 759552; changing to 768038. This may result in incorrect timestamps in the output file.\n",
      "[aost#0:1/copy @ 0x1146148a0] Non-monotonic DTS; previous: 768038, current: 760576; changing to 768039. This may result in incorrect timestamps in the output file.\n",
      "[vost#0:0/copy @ 0x114613c50] Non-monotonic DTS; previous: 204446, current: 202889; changing to 204447. This may result in incorrect timestamps in the output file.\n",
      "[aost#0:1/copy @ 0x1146148a0] Non-monotonic DTS; previous: 768039, current: 761600; changing to 768040. This may result in incorrect timestamps in the output file.\n",
      "[aost#0:1/copy @ 0x1146148a0] Non-monotonic DTS; previous: 768040, current: 762624; changing to 768041. This may result in incorrect timestamps in the output file.\n",
      "[vost#0:0/copy @ 0x114613c50] Non-monotonic DTS; previous: 204447, current: 203401; changing to 204448. This may result in incorrect timestamps in the output file.\n",
      "[aost#0:1/copy @ 0x1146148a0] Non-monotonic DTS; previous: 768041, current: 763648; changing to 768042. This may result in incorrect timestamps in the output file.\n",
      "[vost#0:0/copy @ 0x114613c50] Non-monotonic DTS; previous: 204448, current: 203913; changing to 204449. This may result in incorrect timestamps in the output file.\n",
      "[aost#0:1/copy @ 0x1146148a0] Non-monotonic DTS; previous: 768042, current: 764672; changing to 768043. This may result in incorrect timestamps in the output file.\n",
      "[aost#0:1/copy @ 0x1146148a0] Non-monotonic DTS; previous: 768043, current: 765696; changing to 768044. This may result in incorrect timestamps in the output file.\n",
      "[vost#0:0/copy @ 0x114613c50] Non-monotonic DTS; previous: 204449, current: 204425; changing to 204450. This may result in incorrect timestamps in the output file.\n",
      "[aost#0:1/copy @ 0x1146148a0] Non-monotonic DTS; previous: 768044, current: 766720; changing to 768045. This may result in incorrect timestamps in the output file.\n",
      "[aost#0:1/copy @ 0x1146148a0] Non-monotonic DTS; previous: 768045, current: 767744; changing to 768046. This may result in incorrect timestamps in the output file.\n",
      "[mov,mp4,m4a,3gp,3g2,mj2 @ 0x124708730] Auto-inserting h264_mp4toannexb bitstream filter\n",
      "[mov,mp4,m4a,3gp,3g2,mj2 @ 0x1246339e0] Auto-inserting h264_mp4toannexb bitstream filter\n",
      "[vost#0:0/copy @ 0x114613c50] Non-monotonic DTS; previous: 589449, current: 577161; changing to 589450. This may result in incorrect timestamps in the output file.\n",
      "[vost#0:0/copy @ 0x114613c50] Non-monotonic DTS; previous: 589450, current: 577673; changing to 589451. This may result in incorrect timestamps in the output file.\n",
      "[aost#0:1/copy @ 0x1146148a0] Non-monotonic DTS; previous: 2212224, current: 2166272; changing to 2212225. This may result in incorrect timestamps in the output file.\n",
      "[aost#0:1/copy @ 0x1146148a0] Non-monotonic DTS; previous: 2212225, current: 2167296; changing to 2212226. This may result in incorrect timestamps in the output file.\n",
      "[vost#0:0/copy @ 0x114613c50] Non-monotonic DTS; previous: 589451, current: 578185; changing to 589452. This may result in incorrect timestamps in the output file.\n",
      "[aost#0:1/copy @ 0x1146148a0] Non-monotonic DTS; previous: 2212226, current: 2168320; changing to 2212227. This may result in incorrect timestamps in the output file.\n",
      "[aost#0:1/copy @ 0x1146148a0] Non-monotonic DTS; previous: 2212227, current: 2169344; changing to 2212228. This may result in incorrect timestamps in the output file.\n",
      "[vost#0:0/copy @ 0x114613c50] Non-monotonic DTS; previous: 589452, current: 578697; changing to 589453. This may result in incorrect timestamps in the output file.\n",
      "[aost#0:1/copy @ 0x1146148a0] Non-monotonic DTS; previous: 2212228, current: 2170368; changing to 2212229. This may result in incorrect timestamps in the output file.\n",
      "[aost#0:1/copy @ 0x1146148a0] Non-monotonic DTS; previous: 2212229, current: 2171392; changing to 2212230. This may result in incorrect timestamps in the output file.\n",
      "[vost#0:0/copy @ 0x114613c50] Non-monotonic DTS; previous: 589453, current: 579209; changing to 589454. This may result in incorrect timestamps in the output file.\n",
      "[aost#0:1/copy @ 0x1146148a0] Non-monotonic DTS; previous: 2212230, current: 2172416; changing to 2212231. This may result in incorrect timestamps in the output file.\n",
      "[aost#0:1/copy @ 0x1146148a0] Non-monotonic DTS; previous: 2212231, current: 2173440; changing to 2212232. This may result in incorrect timestamps in the output file.\n",
      "[vost#0:0/copy @ 0x114613c50] Non-monotonic DTS; previous: 589454, current: 579721; changing to 589455. This may result in incorrect timestamps in the output file.\n",
      "[aost#0:1/copy @ 0x1146148a0] Non-monotonic DTS; previous: 2212232, current: 2174464; changing to 2212233. This may result in incorrect timestamps in the output file.\n",
      "[aost#0:1/copy @ 0x1146148a0] Non-monotonic DTS; previous: 2212233, current: 2175488; changing to 2212234. This may result in incorrect timestamps in the output file.\n",
      "[vost#0:0/copy @ 0x114613c50] Non-monotonic DTS; previous: 589455, current: 580233; changing to 589456. This may result in incorrect timestamps in the output file.\n",
      "[aost#0:1/copy @ 0x1146148a0] Non-monotonic DTS; previous: 2212234, current: 2176512; changing to 2212235. This may result in incorrect timestamps in the output file.\n",
      "[aost#0:1/copy @ 0x1146148a0] Non-monotonic DTS; previous: 2212235, current: 2177536; changing to 2212236. This may result in incorrect timestamps in the output file.\n",
      "[vost#0:0/copy @ 0x114613c50] Non-monotonic DTS; previous: 589456, current: 580745; changing to 589457. This may result in incorrect timestamps in the output file.\n",
      "[aost#0:1/copy @ 0x1146148a0] Non-monotonic DTS; previous: 2212236, current: 2178560; changing to 2212237. This may result in incorrect timestamps in the output file.\n",
      "[aost#0:1/copy @ 0x1146148a0] Non-monotonic DTS; previous: 2212237, current: 2179584; changing to 2212238. This may result in incorrect timestamps in the output file.\n",
      "[vost#0:0/copy @ 0x114613c50] Non-monotonic DTS; previous: 589457, current: 581257; changing to 589458. This may result in incorrect timestamps in the output file.\n",
      "[aost#0:1/copy @ 0x1146148a0] Non-monotonic DTS; previous: 2212238, current: 2180608; changing to 2212239. This may result in incorrect timestamps in the output file.\n",
      "[vost#0:0/copy @ 0x114613c50] Non-monotonic DTS; previous: 589458, current: 581769; changing to 589459. This may result in incorrect timestamps in the output file.\n",
      "[aost#0:1/copy @ 0x1146148a0] Non-monotonic DTS; previous: 2212239, current: 2181632; changing to 2212240. This may result in incorrect timestamps in the output file.\n",
      "[aost#0:1/copy @ 0x1146148a0] Non-monotonic DTS; previous: 2212240, current: 2182656; changing to 2212241. This may result in incorrect timestamps in the output file.\n",
      "[vost#0:0/copy @ 0x114613c50] Non-monotonic DTS; previous: 589459, current: 582281; changing to 589460. This may result in incorrect timestamps in the output file.\n",
      "[aost#0:1/copy @ 0x1146148a0] Non-monotonic DTS; previous: 2212241, current: 2183680; changing to 2212242. This may result in incorrect timestamps in the output file.\n",
      "[aost#0:1/copy @ 0x1146148a0] Non-monotonic DTS; previous: 2212242, current: 2184704; changing to 2212243. This may result in incorrect timestamps in the output file.\n",
      "[vost#0:0/copy @ 0x114613c50] Non-monotonic DTS; previous: 589460, current: 582793; changing to 589461. This may result in incorrect timestamps in the output file.\n",
      "[aost#0:1/copy @ 0x1146148a0] Non-monotonic DTS; previous: 2212243, current: 2185728; changing to 2212244. This may result in incorrect timestamps in the output file.\n",
      "[aost#0:1/copy @ 0x1146148a0] Non-monotonic DTS; previous: 2212244, current: 2186752; changing to 2212245. This may result in incorrect timestamps in the output file.\n",
      "[vost#0:0/copy @ 0x114613c50] Non-monotonic DTS; previous: 589461, current: 583305; changing to 589462. This may result in incorrect timestamps in the output file.\n",
      "[aost#0:1/copy @ 0x1146148a0] Non-monotonic DTS; previous: 2212245, current: 2187776; changing to 2212246. This may result in incorrect timestamps in the output file.\n",
      "[aost#0:1/copy @ 0x1146148a0] Non-monotonic DTS; previous: 2212246, current: 2188800; changing to 2212247. This may result in incorrect timestamps in the output file.\n",
      "[vost#0:0/copy @ 0x114613c50] Non-monotonic DTS; previous: 589462, current: 583817; changing to 589463. This may result in incorrect timestamps in the output file.\n",
      "[aost#0:1/copy @ 0x1146148a0] Non-monotonic DTS; previous: 2212247, current: 2189824; changing to 2212248. This may result in incorrect timestamps in the output file.\n",
      "[aost#0:1/copy @ 0x1146148a0] Non-monotonic DTS; previous: 2212248, current: 2190848; changing to 2212249. This may result in incorrect timestamps in the output file.\n",
      "[vost#0:0/copy @ 0x114613c50] Non-monotonic DTS; previous: 589463, current: 584329; changing to 589464. This may result in incorrect timestamps in the output file.\n",
      "[aost#0:1/copy @ 0x1146148a0] Non-monotonic DTS; previous: 2212249, current: 2191872; changing to 2212250. This may result in incorrect timestamps in the output file.\n",
      "[aost#0:1/copy @ 0x1146148a0] Non-monotonic DTS; previous: 2212250, current: 2192896; changing to 2212251. This may result in incorrect timestamps in the output file.\n",
      "[vost#0:0/copy @ 0x114613c50] Non-monotonic DTS; previous: 589464, current: 584841; changing to 589465. This may result in incorrect timestamps in the output file.\n",
      "[aost#0:1/copy @ 0x1146148a0] Non-monotonic DTS; previous: 2212251, current: 2193920; changing to 2212252. This may result in incorrect timestamps in the output file.\n",
      "[aost#0:1/copy @ 0x1146148a0] Non-monotonic DTS; previous: 2212252, current: 2194944; changing to 2212253. This may result in incorrect timestamps in the output file.\n",
      "[vost#0:0/copy @ 0x114613c50] Non-monotonic DTS; previous: 589465, current: 585353; changing to 589466. This may result in incorrect timestamps in the output file.\n",
      "[aost#0:1/copy @ 0x1146148a0] Non-monotonic DTS; previous: 2212253, current: 2195968; changing to 2212254. This may result in incorrect timestamps in the output file.\n",
      "[vost#0:0/copy @ 0x114613c50] Non-monotonic DTS; previous: 589466, current: 585865; changing to 589467. This may result in incorrect timestamps in the output file.\n",
      "[aost#0:1/copy @ 0x1146148a0] Non-monotonic DTS; previous: 2212254, current: 2196992; changing to 2212255. This may result in incorrect timestamps in the output file.\n",
      "[aost#0:1/copy @ 0x1146148a0] Non-monotonic DTS; previous: 2212255, current: 2198016; changing to 2212256. This may result in incorrect timestamps in the output file.\n",
      "[vost#0:0/copy @ 0x114613c50] Non-monotonic DTS; previous: 589467, current: 586377; changing to 589468. This may result in incorrect timestamps in the output file.\n",
      "[aost#0:1/copy @ 0x1146148a0] Non-monotonic DTS; previous: 2212256, current: 2199040; changing to 2212257. This may result in incorrect timestamps in the output file.\n",
      "[aost#0:1/copy @ 0x1146148a0] Non-monotonic DTS; previous: 2212257, current: 2200064; changing to 2212258. This may result in incorrect timestamps in the output file.\n",
      "[vost#0:0/copy @ 0x114613c50] Non-monotonic DTS; previous: 589468, current: 586889; changing to 589469. This may result in incorrect timestamps in the output file.\n",
      "[aost#0:1/copy @ 0x1146148a0] Non-monotonic DTS; previous: 2212258, current: 2201088; changing to 2212259. This may result in incorrect timestamps in the output file.\n",
      "[aost#0:1/copy @ 0x1146148a0] Non-monotonic DTS; previous: 2212259, current: 2202112; changing to 2212260. This may result in incorrect timestamps in the output file.\n",
      "[vost#0:0/copy @ 0x114613c50] Non-monotonic DTS; previous: 589469, current: 587401; changing to 589470. This may result in incorrect timestamps in the output file.\n",
      "[aost#0:1/copy @ 0x1146148a0] Non-monotonic DTS; previous: 2212260, current: 2203136; changing to 2212261. This may result in incorrect timestamps in the output file.\n",
      "[aost#0:1/copy @ 0x1146148a0] Non-monotonic DTS; previous: 2212261, current: 2204160; changing to 2212262. This may result in incorrect timestamps in the output file.\n",
      "[vost#0:0/copy @ 0x114613c50] Non-monotonic DTS; previous: 589470, current: 587913; changing to 589471. This may result in incorrect timestamps in the output file.\n",
      "[aost#0:1/copy @ 0x1146148a0] Non-monotonic DTS; previous: 2212262, current: 2205184; changing to 2212263. This may result in incorrect timestamps in the output file.\n",
      "[aost#0:1/copy @ 0x1146148a0] Non-monotonic DTS; previous: 2212263, current: 2206208; changing to 2212264. This may result in incorrect timestamps in the output file.\n",
      "[vost#0:0/copy @ 0x114613c50] Non-monotonic DTS; previous: 589471, current: 588425; changing to 589472. This may result in incorrect timestamps in the output file.\n",
      "[aost#0:1/copy @ 0x1146148a0] Non-monotonic DTS; previous: 2212264, current: 2207232; changing to 2212265. This may result in incorrect timestamps in the output file.\n",
      "[aost#0:1/copy @ 0x1146148a0] Non-monotonic DTS; previous: 2212265, current: 2208256; changing to 2212266. This may result in incorrect timestamps in the output file.\n",
      "[vost#0:0/copy @ 0x114613c50] Non-monotonic DTS; previous: 589472, current: 588937; changing to 589473. This may result in incorrect timestamps in the output file.\n",
      "[aost#0:1/copy @ 0x1146148a0] Non-monotonic DTS; previous: 2212266, current: 2209280; changing to 2212267. This may result in incorrect timestamps in the output file.\n",
      "[aost#0:1/copy @ 0x1146148a0] Non-monotonic DTS; previous: 2212267, current: 2210304; changing to 2212268. This may result in incorrect timestamps in the output file.\n",
      "[vost#0:0/copy @ 0x114613c50] Non-monotonic DTS; previous: 589473, current: 589449; changing to 589474. This may result in incorrect timestamps in the output file.\n",
      "[aost#0:1/copy @ 0x1146148a0] Non-monotonic DTS; previous: 2212268, current: 2211328; changing to 2212269. This may result in incorrect timestamps in the output file.\n",
      "[mov,mp4,m4a,3gp,3g2,mj2 @ 0x1247072a0] Auto-inserting h264_mp4toannexb bitstream filter\n",
      "[mov,mp4,m4a,3gp,3g2,mj2 @ 0x124707fb0] Auto-inserting h264_mp4toannexb bitstream filter\n",
      "[vost#0:0/copy @ 0x114613c50] Non-monotonic DTS; previous: 974473, current: 962185; changing to 974474. This may result in incorrect timestamps in the output file.\n",
      "[aost#0:1/copy @ 0x1146148a0] Non-monotonic DTS; previous: 3656064, current: 3609344; changing to 3656065. This may result in incorrect timestamps in the output file.\n",
      "[vost#0:0/copy @ 0x114613c50] Non-monotonic DTS; previous: 974474, current: 962697; changing to 974475. This may result in incorrect timestamps in the output file.\n",
      "[aost#0:1/copy @ 0x1146148a0] Non-monotonic DTS; previous: 3656065, current: 3610368; changing to 3656066. This may result in incorrect timestamps in the output file.\n",
      "[aost#0:1/copy @ 0x1146148a0] Non-monotonic DTS; previous: 3656066, current: 3611392; changing to 3656067. This may result in incorrect timestamps in the output file.\n",
      "[vost#0:0/copy @ 0x114613c50] Non-monotonic DTS; previous: 974475, current: 963209; changing to 974476. This may result in incorrect timestamps in the output file.\n",
      "[aost#0:1/copy @ 0x1146148a0] Non-monotonic DTS; previous: 3656067, current: 3612416; changing to 3656068. This may result in incorrect timestamps in the output file.\n",
      "[aost#0:1/copy @ 0x1146148a0] Non-monotonic DTS; previous: 3656068, current: 3613440; changing to 3656069. This may result in incorrect timestamps in the output file.\n",
      "[vost#0:0/copy @ 0x114613c50] Non-monotonic DTS; previous: 974476, current: 963721; changing to 974477. This may result in incorrect timestamps in the output file.\n",
      "[aost#0:1/copy @ 0x1146148a0] Non-monotonic DTS; previous: 3656069, current: 3614464; changing to 3656070. This may result in incorrect timestamps in the output file.\n",
      "[aost#0:1/copy @ 0x1146148a0] Non-monotonic DTS; previous: 3656070, current: 3615488; changing to 3656071. This may result in incorrect timestamps in the output file.\n",
      "[vost#0:0/copy @ 0x114613c50] Non-monotonic DTS; previous: 974477, current: 964233; changing to 974478. This may result in incorrect timestamps in the output file.\n",
      "[aost#0:1/copy @ 0x1146148a0] Non-monotonic DTS; previous: 3656071, current: 3616512; changing to 3656072. This may result in incorrect timestamps in the output file.\n",
      "[aost#0:1/copy @ 0x1146148a0] Non-monotonic DTS; previous: 3656072, current: 3617536; changing to 3656073. This may result in incorrect timestamps in the output file.\n",
      "[vost#0:0/copy @ 0x114613c50] Non-monotonic DTS; previous: 974478, current: 964745; changing to 974479. This may result in incorrect timestamps in the output file.\n",
      "[aost#0:1/copy @ 0x1146148a0] Non-monotonic DTS; previous: 3656073, current: 3618560; changing to 3656074. This may result in incorrect timestamps in the output file.\n",
      "[aost#0:1/copy @ 0x1146148a0] Non-monotonic DTS; previous: 3656074, current: 3619584; changing to 3656075. This may result in incorrect timestamps in the output file.\n",
      "[vost#0:0/copy @ 0x114613c50] Non-monotonic DTS; previous: 974479, current: 965257; changing to 974480. This may result in incorrect timestamps in the output file.\n",
      "[aost#0:1/copy @ 0x1146148a0] Non-monotonic DTS; previous: 3656075, current: 3620608; changing to 3656076. This may result in incorrect timestamps in the output file.\n",
      "[vost#0:0/copy @ 0x114613c50] Non-monotonic DTS; previous: 974480, current: 965769; changing to 974481. This may result in incorrect timestamps in the output file.\n",
      "[aost#0:1/copy @ 0x1146148a0] Non-monotonic DTS; previous: 3656076, current: 3621632; changing to 3656077. This may result in incorrect timestamps in the output file.\n",
      "[aost#0:1/copy @ 0x1146148a0] Non-monotonic DTS; previous: 3656077, current: 3622656; changing to 3656078. This may result in incorrect timestamps in the output file.\n",
      "[vost#0:0/copy @ 0x114613c50] Non-monotonic DTS; previous: 974481, current: 966281; changing to 974482. This may result in incorrect timestamps in the output file.\n",
      "[aost#0:1/copy @ 0x1146148a0] Non-monotonic DTS; previous: 3656078, current: 3623680; changing to 3656079. This may result in incorrect timestamps in the output file.\n",
      "[aost#0:1/copy @ 0x1146148a0] Non-monotonic DTS; previous: 3656079, current: 3624704; changing to 3656080. This may result in incorrect timestamps in the output file.\n",
      "[vost#0:0/copy @ 0x114613c50] Non-monotonic DTS; previous: 974482, current: 966793; changing to 974483. This may result in incorrect timestamps in the output file.\n",
      "[aost#0:1/copy @ 0x1146148a0] Non-monotonic DTS; previous: 3656080, current: 3625728; changing to 3656081. This may result in incorrect timestamps in the output file.\n",
      "[aost#0:1/copy @ 0x1146148a0] Non-monotonic DTS; previous: 3656081, current: 3626752; changing to 3656082. This may result in incorrect timestamps in the output file.\n",
      "[vost#0:0/copy @ 0x114613c50] Non-monotonic DTS; previous: 974483, current: 967305; changing to 974484. This may result in incorrect timestamps in the output file.\n",
      "[aost#0:1/copy @ 0x1146148a0] Non-monotonic DTS; previous: 3656082, current: 3627776; changing to 3656083. This may result in incorrect timestamps in the output file.\n",
      "[aost#0:1/copy @ 0x1146148a0] Non-monotonic DTS; previous: 3656083, current: 3628800; changing to 3656084. This may result in incorrect timestamps in the output file.\n",
      "[vost#0:0/copy @ 0x114613c50] Non-monotonic DTS; previous: 974484, current: 967817; changing to 974485. This may result in incorrect timestamps in the output file.\n",
      "[aost#0:1/copy @ 0x1146148a0] Non-monotonic DTS; previous: 3656084, current: 3629824; changing to 3656085. This may result in incorrect timestamps in the output file.\n",
      "[aost#0:1/copy @ 0x1146148a0] Non-monotonic DTS; previous: 3656085, current: 3630848; changing to 3656086. This may result in incorrect timestamps in the output file.\n",
      "[vost#0:0/copy @ 0x114613c50] Non-monotonic DTS; previous: 974485, current: 968329; changing to 974486. This may result in incorrect timestamps in the output file.\n",
      "[aost#0:1/copy @ 0x1146148a0] Non-monotonic DTS; previous: 3656086, current: 3631872; changing to 3656087. This may result in incorrect timestamps in the output file.\n",
      "[aost#0:1/copy @ 0x1146148a0] Non-monotonic DTS; previous: 3656087, current: 3632896; changing to 3656088. This may result in incorrect timestamps in the output file.\n",
      "[vost#0:0/copy @ 0x114613c50] Non-monotonic DTS; previous: 974486, current: 968841; changing to 974487. This may result in incorrect timestamps in the output file.\n",
      "[aost#0:1/copy @ 0x1146148a0] Non-monotonic DTS; previous: 3656088, current: 3633920; changing to 3656089. This may result in incorrect timestamps in the output file.\n",
      "[aost#0:1/copy @ 0x1146148a0] Non-monotonic DTS; previous: 3656089, current: 3634944; changing to 3656090. This may result in incorrect timestamps in the output file.\n",
      "[vost#0:0/copy @ 0x114613c50] Non-monotonic DTS; previous: 974487, current: 969353; changing to 974488. This may result in incorrect timestamps in the output file.\n",
      "[aost#0:1/copy @ 0x1146148a0] Non-monotonic DTS; previous: 3656090, current: 3635968; changing to 3656091. This may result in incorrect timestamps in the output file.\n",
      "[vost#0:0/copy @ 0x114613c50] Non-monotonic DTS; previous: 974488, current: 969865; changing to 974489. This may result in incorrect timestamps in the output file.\n",
      "[aost#0:1/copy @ 0x1146148a0] Non-monotonic DTS; previous: 3656091, current: 3636992; changing to 3656092. This may result in incorrect timestamps in the output file.\n",
      "[aost#0:1/copy @ 0x1146148a0] Non-monotonic DTS; previous: 3656092, current: 3638016; changing to 3656093. This may result in incorrect timestamps in the output file.\n",
      "[vost#0:0/copy @ 0x114613c50] Non-monotonic DTS; previous: 974489, current: 970377; changing to 974490. This may result in incorrect timestamps in the output file.\n",
      "[aost#0:1/copy @ 0x1146148a0] Non-monotonic DTS; previous: 3656093, current: 3639040; changing to 3656094. This may result in incorrect timestamps in the output file.\n",
      "[aost#0:1/copy @ 0x1146148a0] Non-monotonic DTS; previous: 3656094, current: 3640064; changing to 3656095. This may result in incorrect timestamps in the output file.\n",
      "[vost#0:0/copy @ 0x114613c50] Non-monotonic DTS; previous: 974490, current: 970889; changing to 974491. This may result in incorrect timestamps in the output file.\n",
      "[aost#0:1/copy @ 0x1146148a0] Non-monotonic DTS; previous: 3656095, current: 3641088; changing to 3656096. This may result in incorrect timestamps in the output file.\n",
      "[aost#0:1/copy @ 0x1146148a0] Non-monotonic DTS; previous: 3656096, current: 3642112; changing to 3656097. This may result in incorrect timestamps in the output file.\n",
      "[vost#0:0/copy @ 0x114613c50] Non-monotonic DTS; previous: 974491, current: 971401; changing to 974492. This may result in incorrect timestamps in the output file.\n",
      "[aost#0:1/copy @ 0x1146148a0] Non-monotonic DTS; previous: 3656097, current: 3643136; changing to 3656098. This may result in incorrect timestamps in the output file.\n",
      "[aost#0:1/copy @ 0x1146148a0] Non-monotonic DTS; previous: 3656098, current: 3644160; changing to 3656099. This may result in incorrect timestamps in the output file.\n",
      "[vost#0:0/copy @ 0x114613c50] Non-monotonic DTS; previous: 974492, current: 971913; changing to 974493. This may result in incorrect timestamps in the output file.\n",
      "[aost#0:1/copy @ 0x1146148a0] Non-monotonic DTS; previous: 3656099, current: 3645184; changing to 3656100. This may result in incorrect timestamps in the output file.\n",
      "[aost#0:1/copy @ 0x1146148a0] Non-monotonic DTS; previous: 3656100, current: 3646208; changing to 3656101. This may result in incorrect timestamps in the output file.\n",
      "[vost#0:0/copy @ 0x114613c50] Non-monotonic DTS; previous: 974493, current: 972425; changing to 974494. This may result in incorrect timestamps in the output file.\n",
      "[aost#0:1/copy @ 0x1146148a0] Non-monotonic DTS; previous: 3656101, current: 3647232; changing to 3656102. This may result in incorrect timestamps in the output file.\n",
      "[aost#0:1/copy @ 0x1146148a0] Non-monotonic DTS; previous: 3656102, current: 3648256; changing to 3656103. This may result in incorrect timestamps in the output file.\n",
      "[vost#0:0/copy @ 0x114613c50] Non-monotonic DTS; previous: 974494, current: 972937; changing to 974495. This may result in incorrect timestamps in the output file.\n",
      "[aost#0:1/copy @ 0x1146148a0] Non-monotonic DTS; previous: 3656103, current: 3649280; changing to 3656104. This may result in incorrect timestamps in the output file.\n",
      "[aost#0:1/copy @ 0x1146148a0] Non-monotonic DTS; previous: 3656104, current: 3650304; changing to 3656105. This may result in incorrect timestamps in the output file.\n",
      "[vost#0:0/copy @ 0x114613c50] Non-monotonic DTS; previous: 974495, current: 973449; changing to 974496. This may result in incorrect timestamps in the output file.\n",
      "[aost#0:1/copy @ 0x1146148a0] Non-monotonic DTS; previous: 3656105, current: 3651328; changing to 3656106. This may result in incorrect timestamps in the output file.\n",
      "[vost#0:0/copy @ 0x114613c50] Non-monotonic DTS; previous: 974496, current: 973961; changing to 974497. This may result in incorrect timestamps in the output file.\n",
      "[aost#0:1/copy @ 0x1146148a0] Non-monotonic DTS; previous: 3656106, current: 3652352; changing to 3656107. This may result in incorrect timestamps in the output file.\n",
      "[aost#0:1/copy @ 0x1146148a0] Non-monotonic DTS; previous: 3656107, current: 3653376; changing to 3656108. This may result in incorrect timestamps in the output file.\n",
      "[vost#0:0/copy @ 0x114613c50] Non-monotonic DTS; previous: 974497, current: 974473; changing to 974498. This may result in incorrect timestamps in the output file.\n",
      "[aost#0:1/copy @ 0x1146148a0] Non-monotonic DTS; previous: 3656108, current: 3654400; changing to 3656109. This may result in incorrect timestamps in the output file.\n",
      "[aost#0:1/copy @ 0x1146148a0] Non-monotonic DTS; previous: 3656109, current: 3655424; changing to 3656110. This may result in incorrect timestamps in the output file.\n",
      "[out#0/mp4 @ 0x114605560] video:7378KiB audio:1471KiB subtitle:0KiB other streams:0KiB global headers:0KiB muxing overhead: 0.722637%\n",
      "frame= 2356 fps=0.0 q=-1.0 Lsize=    8914KiB time=00:01:31.21 bitrate= 800.6kbits/s speed=3.01e+03x    \n"
     ]
    }
   ],
   "source": [
    "# Преобразование времени в секунды\n",
    "def time_to_seconds(time_str):\n",
    "    h, m, s = map(int, time_str.split(':'))\n",
    "    return h * 3600 + m * 60 + s\n",
    "\n",
    "# Функция для создания файла с списком клипов для concat\n",
    "\n",
    "\n",
    "def create_list_file(clips, list_path=\"clips_list.txt\"):\n",
    "    with open(list_path, \"w\") as f:\n",
    "        for i, (start, end) in enumerate(clips):\n",
    "            start_sec = time_to_seconds(start)\n",
    "            end_sec = time_to_seconds(end)\n",
    "            duration = end_sec - start_sec\n",
    "            clip_name = f\"clip_{i}.mp4\"\n",
    "            # Вырезаем отдельный клип\n",
    "            subprocess.run([\n",
    "                \"ffmpeg\",\n",
    "                \"-ss\", str(start_sec),\n",
    "                \"-to\", str(end_sec),\n",
    "                \"-i\", input_video_path,\n",
    "                \"-c\", \"copy\",\n",
    "                clip_name,\n",
    "                \"-y\"\n",
    "            ])\n",
    "            f.write(f\"file '{clip_name}'\\n\")\n",
    "    return list_path\n",
    "\n",
    "\n",
    "# Путь к исходному видео\n",
    "input_video_path = \"./data/14194_1_1.mp4\"\n",
    "output_video_path = \"./data/final_recap.mp4\"\n",
    "\n",
    "# Создаем файл со списком клипов\n",
    "list_file = \"clips_list.txt\"\n",
    "create_list_file(clips_times, list_file)\n",
    "\n",
    "# Склеиваем клипы\n",
    "subprocess.run([\n",
    "    \"ffmpeg\",\n",
    "    \"-f\", \"concat\",\n",
    "    \"-safe\", \"0\",\n",
    "    \"-i\", list_file,\n",
    "    \"-c\", \"copy\",\n",
    "    output_video_path,\n",
    "    \"-y\"\n",
    "])\n",
    "\n",
    "# Очищаем временные файлы\n",
    "for i in range(len(clips_times)):\n",
    "    os.remove(f\"clip_{i}.mp4\")\n",
    "os.remove(list_file)\n",
    "\n",
    "print(f\"Видео успешно сохранено: {output_video_path}\")"
   ]
  }
 ],
 "metadata": {
  "kernelspec": {
   "display_name": "dlenv",
   "language": "python",
   "name": "python3"
  },
  "language_info": {
   "codemirror_mode": {
    "name": "ipython",
    "version": 3
   },
   "file_extension": ".py",
   "mimetype": "text/x-python",
   "name": "python",
   "nbconvert_exporter": "python",
   "pygments_lexer": "ipython3",
   "version": "3.11.11"
  }
 },
 "nbformat": 4,
 "nbformat_minor": 5
}
